<svg xmlns="http://www.w3.org/2000/svg" xmlns:xlink="http://www.w3.org/1999/xlink" width="15" height="20" viewBox="0 0 15 20">
  <defs>
    <style>
      .cls-1 {
        fill: #bcbdbf;
        fill-rule: evenodd;
        filter: url(#filter);
      }
    </style>
    <filter id="filter" x="819" y="343" width="15" height="20" filterUnits="userSpaceOnUse">
      <feFlood result="flood" flood-color="#787a7c"/>
      <feComposite result="composite" operator="in" in2="SourceGraphic"/>
      <feBlend result="blend" in2="SourceGraphic"/>
    </filter>
  </defs>
  <path id="Little_Open_Lock._Attribute_as_Elegant_Themes_from_Flaticon.com" data-name="Little Open Lock. Attribute as Elegant Themes from Flaticon.com" class="cls-1" d="M834,361.751v-10a1.172,1.172,0,0,0-1.072-1.25H822.209l0.005-.53c0-3.369,1.783-5.721,4.337-5.721a4.8,4.8,0,0,1,4.349,3.273,0.5,0.5,0,0,0,.712.3,0.672,0.672,0,0,0,.257-0.831A5.869,5.869,0,0,0,826.551,343c-3.133,0-5.408,2.932-5.408,6.964l0,0.538h-1.066A1.172,1.172,0,0,0,819,351.75v10A1.173,1.173,0,0,0,820.072,363h12.856A1.173,1.173,0,0,0,834,361.751Zm-13.928-10h12.856v10H820.072v-10Zm6.428,2.5a2.53,2.53,0,1,0,2.143,2.5A2.341,2.341,0,0,0,826.5,354.25Zm0,3.751a1.266,1.266,0,1,1,1.071-1.25A1.173,1.173,0,0,1,826.5,358Z" transform="translate(-819 -343)"/>
</svg>
